:SAMPLES-PER-SECOND 30
:FRAME-RANGE 1-663
:FULLY-SPECIFIED
:DEGREES
311
root  17.0318 38.7797 87.4703 -174.254 -23.5054 177.946
RightUpLeg  -15.9421 -27.6389 -5.04217
RightLeg  47.8906 -4.85015 -6.04931
RightFoot  -7.22405 -0.67757 17.3496
RightToes  2.91037e-010 0 -3.6325e-017
Spine  13.5751 5.51401 4.54458
Spine1  0.278913 9.86829 -18.361
HEad  -8.35426 5.4086 1.76397
LeftShoulder1  1.90944 -1.73475 -30.407
LeftArm  -1.61774 -5.89796 -37.3414
LeftForeArm  -7.42131 -57.6793 -18.7398
LeftHand  -0.159444 6.37326 -12.5205
RightShoulder  13.5079 31.749 31.91
RightArm  2.97898 23.8882 12.1922
RightForeArm  -30.7965 21.9281 7.17033
RightHand  2.46328 3.69302 30.4454
LeftUpLeg  -17.8494 6.3836 -1.72067
LeftLeg  11.3869 4.54806 -4.50216
LeftFoot  -0.915072 0.169981 -1.80304
LeftToes  -4.9116e-011 5.71383e-011 -3.31847e-011
312
root  17.0895 38.9299 86.9495 -174.258 -22.7556 178.217
RightUpLeg  -17.6822 -28.2905 -5.65486
RightLeg  44.6584 -6.34703 -6.97029
RightFoot  -7.13336 -0.615828 15.3487
RightToes  2.91037e-010 0 -3.6325e-017
Spine  13.638 5.35503 4.55881
Spine1  -0.0529843 9.53738 -17.5837
HEad  -7.42141 4.84506 2.14262
LeftShoulder1  1.88917 -1.68726 -30.3488
LeftArm  -2.13157 -3.83746 -37.1759
LeftForeArm  -5.76137 -59.2465 -19.8782
LeftHand  -0.157881 6.42105 -12.6098
RightShoulder  13.3844 30.4318 33.0832
RightArm  3.19332 22.2459 12.157
RightForeArm  -30.3785 25.0285 6.72896
RightHand  2.44883 3.58941 30.6161
LeftUpLeg  -16.3493 6.89928 -0.910117
LeftLeg  9.91454 4.71782 -4.47143
LeftFoot  -1.32443 0.279023 -3.09332
LeftToes  -4.9116e-011 5.71383e-011 -3.31847e-011
313
root  17.1537 39.0661 86.4154 -174.27 -21.8859 178.466
RightUpLeg  -18.8503 -29.1526 -6.05838
RightLeg  39.3372 -6.76255 -6.1715
RightFoot  -6.51434 -0.682489 15.0543
RightToes  2.91037e-010 0 -3.6325e-017
Spine  13.4425 5.16606 4.55797
Spine1  -0.0979639 9.22141 -16.8055
HEad  -6.35458 3.33107 2.52058
LeftShoulder1  1.85763 -1.6197 -30.2105
LeftArm  -2.376 -1.84673 -36.9997
LeftForeArm  -3.34258 -61.2992 -21.5502
LeftHand  -0.158757 6.38635 -12.5705
RightShoulder  13.1268 28.939 34.1513
RightArm  1.45445 20.246 12.0208
RightForeArm  -27.9702 28.0149 7.36577
RightHand  2.42076 3.4724 30.6707
LeftUpLeg  -14.7601 7.31521 -0.133638
LeftLeg  8.3681 5.10456 -4.32272
LeftFoot  -1.67034 0.386333 -4.44788
LeftToes  -4.9116e-011 5.71383e-011 -3.31847e-011
314
root  17.2489 39.1966 85.8574 -174.213 -20.7843 178.796
RightUpLeg  -19.7687 -30.2224 -5.8473
RightLeg  32.4026 -6.00062 -4.32557
RightFoot  -5.56867 -0.764064 14.329
RightToes  2.91037e-010 0 -3.6325e-017
Spine  13.0281 5.01117 4.58705
Spine1  -0.0930112 8.94213 -15.9839
HEad  -5.21353 1.39354 2.92867
LeftShoulder1  1.82337 -1.55794 -29.9721
LeftArm  -2.41621 -0.237769 -37.0138
LeftForeArm  -0.660447 -63.1275 -23.2248
LeftHand  -0.14483 6.24312 -12.8863
RightShoulder  12.804 27.1995 35.4337
RightArm  -0.5092 18.0563 11.7786
RightForeArm  -25.7379 30.968 8.0435
RightHand  2.41667 3.42201 30.7925
LeftUpLeg  -13.0873 7.73885 0.749113
LeftLeg  6.54369 5.69077 -4.1124
LeftFoot  -1.83229 0.496136 -5.83087
LeftToes  -4.9116e-011 5.71383e-011 -3.31847e-011
315
root  17.3616 39.3153 85.2977 -173.909 -20.1671 178.998
RightUpLeg  -20.4477 -31.9905 -5.17515
RightLeg  24.2135 -4.82603 -2.58324
RightFoot  -4.17464 -0.884055 13.6013
RightToes  2.91037e-010 0 -3.6325e-017
Spine  12.5198 4.61302 4.44956
Spine1  -0.15991 8.28329 -14.7314
HEad  -4.28232 -0.665869 3.20503
LeftShoulder1  1.80871 -1.52688 -29.9016
LeftArm  -2.18129 0.80322 -37.0412
LeftForeArm  1.92138 -64.7489 -24.9204
LeftHand  -0.121259 6.04049 -12.9687
RightShoulder  12.3634 25.251 36.7586
RightArm  -2.86935 15.6382 11.4225
RightForeArm  -24 34.2312 8.88401
RightHand  2.29998 3.07103 30.5581
LeftUpLeg  -11.6565 7.95802 1.51211
LeftLeg  4.74358 6.06379 -4.01255
LeftFoot  -2.08087 0.616527 -7.45244
LeftToes  -4.9116e-011 5.71383e-011 -3.31847e-011
316
root  17.5182 39.382 84.7158 -173.61 -19.6195 179.047
RightUpLeg  -20.6375 -33.7632 -4.25289
RightLeg  15.2526 -5.07472 -1.61302
RightFoot  -2.52132 -1.03702 13.1687
RightToes  2.91037e-010 0 -3.6325e-017
Spine  12.081 4.05242 4.23818
Spine1  -0.209339 7.46915 -13.6201
HEad  -3.83772 -2.33303 3.5265
LeftShoulder1  1.81181 -1.55433 -29.7661
LeftArm  -2.10488 1.36165 -37.2374
LeftForeArm  4.19676 -66.022 -26.4119
LeftHand  -0.104744 5.90204 -12.9819
RightShoulder  11.8597 23.1142 38.327
RightArm  -5.56899 13.371 11.0218
RightForeArm  -21.9719 37.5456 9.80776
RightHand  2.13101 2.53664 30.2794
LeftUpLeg  -10.6407 8.49278 2.26749
LeftLeg  3.86829 6.05996 -4.22353
LeftFoot  -2.34474 0.654693 -8.13476
LeftToes  -4.9116e-011 5.71383e-011 -3.31847e-011
317
root  17.6953 39.3997 84.0721 -173.335 -18.7637 178.722
RightUpLeg  -17.4004 -21.4354 -9.86982
RightLeg  6.27143 -20.8852 2.77822
RightFoot  -1.46252 -0.973051 11.1105
RightToes  2.91037e-010 0 -3.6325e-017
Spine  11.485 3.55695 3.72896
Spine1  0.0661333 6.72645 -12.5458
HEad  -3.59948 -3.44537 3.68178
LeftShoulder1  1.82585 -1.57582 -29.8931
LeftArm  -2.02998 1.21504 -37.313
LeftForeArm  5.67089 -66.71 -27.268
LeftHand  -0.0873137 5.74458 -13.3238
RightShoulder  11.3225 21.1266 39.7294
RightArm  -8.10461 11.0229 10.6457
RightForeArm  -20.1708 40.6182 10.7576
RightHand  1.96966 2.09321 29.7116
LeftUpLeg  -9.61983 8.80192 2.6896
LeftLeg  3.55019 6.40094 -4.22922
LeftFoot  -2.87684 0.664215 -8.73174
LeftToes  -4.9116e-011 5.71383e-011 -3.31847e-011
318
root  17.9268 39.354 83.3114 -173.54 -17.6924 178.226
RightUpLeg  -15.6213 -15.6324 -12.1941
RightLeg  -1.81733 -29.4802 7.15441
RightFoot  -0.304678 -0.955583 9.84627
RightToes  2.91037e-010 0 -3.6325e-017
Spine  11.0255 3.07793 2.83843
Spine1  0.456008 5.97696 -11.3895
HEad  -3.09946 -4.32599 3.52805
LeftShoulder1  1.84351 -1.59005 -30.1432
LeftArm  -1.68448 0.710946 -37.2689
LeftForeArm  6.25563 -66.9225 -27.5275
LeftHand  -0.0755623 5.64687 -13.401
RightShoulder  10.7525 19.3132 40.8626
RightArm  -9.94839 8.61354 10.5205
RightForeArm  -18.823 43.3368 11.6995
RightHand  1.81638 1.62346 29.3031
LeftUpLeg  -8.21239 9.17743 3.11826
LeftLeg  4.03927 6.78759 -4.03626
LeftFoot  -3.91677 0.634064 -9.39645
LeftToes  -4.9116e-011 5.71383e-011 -3.31847e-011
319
root  18.2244 39.2056 82.4351 -173.804 -16.2485 177.43
RightUpLeg  -15.507 -15.4163 -12.4212
RightLeg  -4.47805 -31.3047 8.57353
RightFoot  0.722592 -1.20494 11.4147
RightToes  2.91037e-010 0 -3.6325e-017
Spine  10.4573 2.62093 1.45947
Spine1  0.583758 5.27711 -10.5795
HEad  -2.1419 -4.67717 3.29127
LeftShoulder1  1.81778 -1.49728 -30.3009
LeftArm  -0.871108 0.0112441 -37.0312
LeftForeArm  5.82714 -66.4683 -26.8719
LeftHand  -0.0487174 5.42818 -13.5279
RightShoulder  10.2253 17.6154 42.1069
RightArm  -11.3152 6.35481 10.391
RightForeArm  -17.4021 45.4946 12.4998
RightHand  1.68983 1.31516 28.5815
LeftUpLeg  -7.0574 9.41348 3.3159
LeftLeg  5.75663 7.58643 -3.42256
LeftFoot  -5.61031 0.556155 -10.4193
LeftToes  -4.9116e-011 5.71383e-011 -3.31847e-011
320
root  18.5355 39.1407 81.5136 -174.279 -14.5588 177.152
RightUpLeg  -15.1714 -14.5455 -11.5798
RightLeg  -4.35544 -31.4971 8.18892
RightFoot  1.3731 -1.10477 9.97681
RightToes  2.91037e-010 0 -3.6325e-017
Spine  10.0292 2.31382 1.12038
Spine1  0.629107 4.61411 -9.42906
HEad  -0.816157 -4.69149 2.9785
LeftShoulder1  1.83004 -1.50657 -30.4805
LeftArm  0.271895 -0.731753 -36.4687
LeftForeArm  4.53569 -65.6041 -25.7668
LeftHand  -0.0317678 5.29171 -13.8294
RightShoulder  9.51649 15.7391 43.1002
RightArm  -11.8402 4.26645 10.4622
RightForeArm  -16.1339 47.4832 13.305
RightHand  1.5935 1.02166 28.239
LeftUpLeg  -5.19469 9.69829 4.001
LeftLeg  6.36341 8.58771 -2.82775
LeftFoot  -6.53771 0.506955 -11.1279
LeftToes  -4.9116e-011 5.71383e-011 -3.31847e-011
321
root  18.8608 39.1338 80.5499 -174.888 -12.1101 177.472
RightUpLeg  -15.6117 -13.038 -9.70522
RightLeg  -1.41993 -29.6884 6.17495
RightFoot  3.87372 -0.714577 5.54405
RightToes  2.91037e-010 0 -3.6325e-017
Spine  9.50681 1.99616 2.12342
Spine1  0.844847 4.08359 -8.71735
HEad  0.287239 -4.07845 2.58193
LeftShoulder1  1.80245 -1.45027 -30.3364
LeftArm  0.791224 -0.71521 -35.7297
LeftForeArm  3.57188 -65.2898 -25.4485
LeftHand  -0.0280142 5.26239 -14.2599
RightShoulder  8.94338 14.3236 43.7756
RightArm  -11.0945 2.23459 10.7645
RightForeArm  -15.7394 49.5563 14.281
RightHand  1.42701 0.49839 27.6395
LeftUpLeg  -2.82563 10.1338 5.2404
LeftLeg  6.35515 10.2665 -2.14279
LeftFoot  -7.11404 0.49275 -12.1635
LeftToes  -4.9116e-011 5.71383e-011 -3.31847e-011
322
root  19.2346 39.1126 79.5244 -176.125 -9.8267 178.585
RightUpLeg  -15.8295 -11.478 -7.5287
RightLeg  2.16641 -27.253 4.21836
RightFoot  6.7366 -0.0855486 0.828165
RightToes  2.91037e-010 0 -3.6325e-017
Spine  9.8036 1.53182 4.16432
Spine1  0.87755 3.47097 -7.7903
HEad  1.17615 -3.32815 1.75708
LeftShoulder1  1.79562 -1.39881 -30.5811
LeftArm  1.10398 -0.485718 -34.773
LeftForeArm  3.17821 -65.0492 -25.1696
LeftHand  -0.0242128 5.23392 -14.4765
RightShoulder  8.23921 12.8331 44.0364
RightArm  -9.6516 0.413074 11.0489
RightForeArm  -15.0117 51.7984 15.4315
RightHand  1.23323 -0.0922582 26.6949
LeftUpLeg  -0.0261692 11.2966 7.58769
LeftLeg  6.94938 10.9668 -1.4963
LeftFoot  -7.8938 0.44633 -13.2172
LeftToes  -4.9116e-011 5.71383e-011 -3.31847e-011
